<mxfile host="app.diagrams.net" modified="2020-04-19T02:39:48.832Z" agent="5.0 (Windows NT 10.0; Win64; x64) AppleWebKit/537.36 (KHTML, like Gecko) Chrome/80.0.3987.163 Safari/537.36" etag="t_SfmIodn6ZxW_xMcr_B" version="12.9.14" type="github" pages="2">
  <diagram id="Fy2HfYQQaQ6EMwLZordq" name="Page-1">
    <mxGraphModel dx="1837" dy="1217" grid="0" gridSize="10" guides="1" tooltips="1" connect="1" arrows="1" fold="1" page="0" pageScale="1" pageWidth="1654" pageHeight="1169" background="none" math="0" shadow="0">
      <root>
        <mxCell id="0" />
        <mxCell id="1" parent="0" />
        <mxCell id="uoMERZnr7zpO_wiibmVZ-2" value="&lt;font style=&quot;font-size: 20px&quot;&gt;JiraiyaIndicators&lt;/font&gt;" style="shape=umlFrame;whiteSpace=wrap;html=1;startSize=30;width=161;height=43;fontStyle=1;treeFolding=0;shadow=1;" parent="1" vertex="1">
          <mxGeometry x="-276" y="-12" width="2616" height="1281" as="geometry" />
        </mxCell>
        <mxCell id="O_61zwk5EEJ6vkBen8N2-33" value="&lt;font style=&quot;font-size: 20px&quot;&gt;&lt;b&gt;DowPivot&lt;/b&gt;&lt;/font&gt;" style="shape=umlFrame;whiteSpace=wrap;html=1;startSize=30;width=108;height=46;shadow=1;" parent="1" vertex="1">
          <mxGeometry x="1556" y="43" width="744" height="1190" as="geometry" />
        </mxCell>
        <mxCell id="uoMERZnr7zpO_wiibmVZ-1" value="&lt;font style=&quot;font-size: 20px&quot;&gt;&lt;b&gt;PriceActionSwing&lt;/b&gt;&lt;/font&gt;" style="shape=umlFrame;whiteSpace=wrap;html=1;startSize=30;width=188;height=45;strokeWidth=1;shadow=1;" parent="1" vertex="1">
          <mxGeometry x="-250" y="43" width="1245" height="1196" as="geometry" />
        </mxCell>
        <mxCell id="oVfhNXQn3vao5zob85Lq-34" value="" style="rounded=0;orthogonalLoop=1;jettySize=auto;html=1;fontSize=12;endArrow=none;endFill=0;" parent="1" target="7CBWycC-ObVPVQWf6ARU-30" edge="1">
          <mxGeometry relative="1" as="geometry">
            <mxPoint x="1249.5200000000004" y="332.03200000000015" as="targetPoint" />
            <mxPoint x="1248.5" y="292" as="sourcePoint" />
          </mxGeometry>
        </mxCell>
        <mxCell id="SqsRjnLHIsqS0qZh4drD-19" style="edgeStyle=orthogonalEdgeStyle;rounded=0;orthogonalLoop=1;jettySize=auto;html=1;endArrow=none;endFill=0;" parent="1" source="oVfhNXQn3vao5zob85Lq-77" target="SqsRjnLHIsqS0qZh4drD-10" edge="1">
          <mxGeometry relative="1" as="geometry" />
        </mxCell>
        <mxCell id="SqsRjnLHIsqS0qZh4drD-20" style="edgeStyle=orthogonalEdgeStyle;rounded=0;orthogonalLoop=1;jettySize=auto;html=1;endArrow=none;endFill=0;" parent="1" source="oVfhNXQn3vao5zob85Lq-77" target="SqsRjnLHIsqS0qZh4drD-1" edge="1">
          <mxGeometry relative="1" as="geometry" />
        </mxCell>
        <mxCell id="SqsRjnLHIsqS0qZh4drD-30" style="edgeStyle=orthogonalEdgeStyle;rounded=0;orthogonalLoop=1;jettySize=auto;html=1;entryX=0.25;entryY=0;entryDx=0;entryDy=0;endArrow=none;endFill=0;" parent="1" source="7CBWycC-ObVPVQWf6ARU-38" target="oVfhNXQn3vao5zob85Lq-16" edge="1">
          <mxGeometry relative="1" as="geometry">
            <mxPoint x="352" y="1031" as="targetPoint" />
            <Array as="points">
              <mxPoint x="-21" y="934" />
            </Array>
          </mxGeometry>
        </mxCell>
        <mxCell id="SqsRjnLHIsqS0qZh4drD-32" style="edgeStyle=orthogonalEdgeStyle;rounded=0;orthogonalLoop=1;jettySize=auto;html=1;entryX=0.425;entryY=-0.001;entryDx=0;entryDy=0;entryPerimeter=0;endArrow=none;endFill=0;" parent="1" source="7CBWycC-ObVPVQWf6ARU-38" target="oVfhNXQn3vao5zob85Lq-21" edge="1">
          <mxGeometry relative="1" as="geometry">
            <Array as="points">
              <mxPoint x="-13" y="660" />
            </Array>
          </mxGeometry>
        </mxCell>
        <mxCell id="fPNTmjn9pd60Ij1Y-FJk-20" style="edgeStyle=orthogonalEdgeStyle;rounded=0;orthogonalLoop=1;jettySize=auto;html=1;exitX=0.75;exitY=0;exitDx=0;exitDy=0;entryX=1;entryY=0.5;entryDx=0;entryDy=0;startSize=30;endArrow=none;endFill=0;" parent="1" source="7CBWycC-ObVPVQWf6ARU-38" target="oVfhNXQn3vao5zob85Lq-80" edge="1">
          <mxGeometry relative="1" as="geometry">
            <Array as="points">
              <mxPoint x="525" y="574" />
              <mxPoint x="928" y="574" />
              <mxPoint x="928" y="182" />
            </Array>
          </mxGeometry>
        </mxCell>
        <mxCell id="fPNTmjn9pd60Ij1Y-FJk-3" style="edgeStyle=orthogonalEdgeStyle;rounded=0;orthogonalLoop=1;jettySize=auto;html=1;exitX=0.75;exitY=0;exitDx=0;exitDy=0;endArrow=circlePlus;endFill=0;" parent="1" source="oVfhNXQn3vao5zob85Lq-16" target="7CBWycC-ObVPVQWf6ARU-38" edge="1">
          <mxGeometry relative="1" as="geometry">
            <Array as="points">
              <mxPoint x="49" y="945" />
            </Array>
          </mxGeometry>
        </mxCell>
        <mxCell id="SqsRjnLHIsqS0qZh4drD-40" value="Extends" style="endArrow=block;endSize=16;endFill=0;html=1;entryX=0.272;entryY=-0.002;entryDx=0;entryDy=0;entryPerimeter=0;exitX=0.951;exitY=1.115;exitDx=0;exitDy=0;exitPerimeter=0;" parent="1" source="SqsRjnLHIsqS0qZh4drD-5" target="7CBWycC-ObVPVQWf6ARU-38" edge="1">
          <mxGeometry width="160" relative="1" as="geometry">
            <mxPoint x="301.5" y="421" as="sourcePoint" />
            <mxPoint x="461.5" y="421" as="targetPoint" />
            <Array as="points" />
          </mxGeometry>
        </mxCell>
        <mxCell id="SqsRjnLHIsqS0qZh4drD-41" value="Extends" style="endArrow=block;endSize=16;endFill=0;html=1;entryX=0.635;entryY=0.002;entryDx=0;entryDy=0;entryPerimeter=0;exitX=0.177;exitY=1.038;exitDx=0;exitDy=0;exitPerimeter=0;" parent="1" source="SqsRjnLHIsqS0qZh4drD-12" target="7CBWycC-ObVPVQWf6ARU-38" edge="1">
          <mxGeometry width="160" relative="1" as="geometry">
            <mxPoint x="479.5" y="418" as="sourcePoint" />
            <mxPoint x="462.5" y="539.912" as="targetPoint" />
            <Array as="points">
              <mxPoint x="479.5" y="448" />
            </Array>
          </mxGeometry>
        </mxCell>
        <mxCell id="fPNTmjn9pd60Ij1Y-FJk-2" style="edgeStyle=none;rounded=0;orthogonalLoop=1;jettySize=auto;html=1;endArrow=circlePlus;endFill=0;exitX=0.644;exitY=0.02;exitDx=0;exitDy=0;exitPerimeter=0;" parent="1" source="7CBWycC-ObVPVQWf6ARU-30" edge="1">
          <mxGeometry relative="1" as="geometry">
            <mxPoint x="1268.5600000000004" y="331" as="sourcePoint" />
            <mxPoint x="1267.5" y="291" as="targetPoint" />
            <Array as="points" />
          </mxGeometry>
        </mxCell>
        <mxCell id="7CBWycC-ObVPVQWf6ARU-30" value="&lt;&lt;enumeration&gt;&gt;&#xa;SidePoint" style="swimlane;fontStyle=1;childLayout=stackLayout;horizontal=1;startSize=26;fillColor=none;horizontalStack=0;resizeParent=1;resizeParentMax=0;resizeLast=0;collapsible=1;marginBottom=0;fontSize=12;" parent="1" vertex="1">
          <mxGeometry x="1178" y="335" width="140" height="86" as="geometry" />
        </mxCell>
        <mxCell id="7CBWycC-ObVPVQWf6ARU-32" value="Low" style="text;strokeColor=none;fillColor=none;align=left;verticalAlign=top;spacingLeft=4;spacingRight=4;overflow=hidden;rotatable=0;points=[[0,0.5],[1,0.5]];portConstraint=eastwest;" parent="7CBWycC-ObVPVQWf6ARU-30" vertex="1">
          <mxGeometry y="26" width="140" height="20" as="geometry" />
        </mxCell>
        <mxCell id="7CBWycC-ObVPVQWf6ARU-33" value="Unknow" style="text;strokeColor=none;fillColor=none;align=left;verticalAlign=top;spacingLeft=4;spacingRight=4;overflow=hidden;rotatable=0;points=[[0,0.5],[1,0.5]];portConstraint=eastwest;" parent="7CBWycC-ObVPVQWf6ARU-30" vertex="1">
          <mxGeometry y="46" width="140" height="20" as="geometry" />
        </mxCell>
        <mxCell id="7CBWycC-ObVPVQWf6ARU-31" value="High" style="text;strokeColor=none;fillColor=none;align=left;verticalAlign=top;spacingLeft=4;spacingRight=4;overflow=hidden;rotatable=0;points=[[0,0.5],[1,0.5]];portConstraint=eastwest;" parent="7CBWycC-ObVPVQWf6ARU-30" vertex="1">
          <mxGeometry y="66" width="140" height="20" as="geometry" />
        </mxCell>
        <mxCell id="7CBWycC-ObVPVQWf6ARU-15" value="Point" style="swimlane;fontStyle=1;childLayout=stackLayout;horizontal=1;startSize=26;fillColor=none;horizontalStack=0;resizeParent=1;resizeParentMax=0;resizeLast=0;collapsible=1;marginBottom=0;fontSize=12;" parent="1" vertex="1">
          <mxGeometry x="1101" y="109" width="300" height="182" as="geometry" />
        </mxCell>
        <mxCell id="7CBWycC-ObVPVQWf6ARU-16" value="&lt;&lt;get/set&gt;&gt; -price: double" style="text;strokeColor=none;fillColor=none;align=left;verticalAlign=top;spacingLeft=4;spacingRight=4;overflow=hidden;rotatable=0;points=[[0,0.5],[1,0.5]];portConstraint=eastwest;" parent="7CBWycC-ObVPVQWf6ARU-15" vertex="1">
          <mxGeometry y="26" width="300" height="20" as="geometry" />
        </mxCell>
        <mxCell id="7CBWycC-ObVPVQWf6ARU-19" value="&lt;&lt;get/set&gt;&gt; -barIndex: int" style="text;strokeColor=none;fillColor=none;align=left;verticalAlign=top;spacingLeft=4;spacingRight=4;overflow=hidden;rotatable=0;points=[[0,0.5],[1,0.5]];portConstraint=eastwest;" parent="7CBWycC-ObVPVQWf6ARU-15" vertex="1">
          <mxGeometry y="46" width="300" height="20" as="geometry" />
        </mxCell>
        <mxCell id="7CBWycC-ObVPVQWf6ARU-20" value="&lt;&lt;get&gt;&gt; -pointIndex: int" style="text;strokeColor=none;fillColor=none;align=left;verticalAlign=top;spacingLeft=4;spacingRight=4;overflow=hidden;rotatable=0;points=[[0,0.5],[1,0.5]];portConstraint=eastwest;" parent="7CBWycC-ObVPVQWf6ARU-15" vertex="1">
          <mxGeometry y="66" width="300" height="20" as="geometry" />
        </mxCell>
        <mxCell id="7CBWycC-ObVPVQWf6ARU-21" value="&lt;&lt;get&gt;&gt; -currentSidePoint: SidePoint" style="text;strokeColor=none;fillColor=none;align=left;verticalAlign=top;spacingLeft=4;spacingRight=4;overflow=hidden;rotatable=0;points=[[0,0.5],[1,0.5]];portConstraint=eastwest;" parent="7CBWycC-ObVPVQWf6ARU-15" vertex="1">
          <mxGeometry y="86" width="300" height="20" as="geometry" />
        </mxCell>
        <mxCell id="7CBWycC-ObVPVQWf6ARU-24" value="" style="line;strokeWidth=1;fillColor=none;align=left;verticalAlign=middle;spacingTop=-1;spacingLeft=3;spacingRight=3;rotatable=0;labelPosition=right;points=[];portConstraint=eastwest;fontSize=16;" parent="7CBWycC-ObVPVQWf6ARU-15" vertex="1">
          <mxGeometry y="106" width="300" height="8" as="geometry" />
        </mxCell>
        <mxCell id="7CBWycC-ObVPVQWf6ARU-29" value="&lt;&lt;constructor&gt;&gt; + Point(price: double, &#xa;                                        barIndex: int, &#xa;                                        pointIndex: int, &#xa;                                        currentSidePoint: SidePoint)" style="text;strokeColor=none;fillColor=none;align=left;verticalAlign=top;spacingLeft=4;spacingRight=4;overflow=hidden;rotatable=0;points=[[0,0.5],[1,0.5]];portConstraint=eastwest;fontSize=12;" parent="7CBWycC-ObVPVQWf6ARU-15" vertex="1">
          <mxGeometry y="114" width="300" height="68" as="geometry" />
        </mxCell>
        <mxCell id="O_61zwk5EEJ6vkBen8N2-21" value="DowPivotClass" style="swimlane;fontStyle=1;align=center;verticalAlign=top;childLayout=stackLayout;horizontal=1;startSize=26;horizontalStack=0;resizeParent=1;resizeParentMax=0;resizeLast=0;collapsible=1;marginBottom=0;fontSize=12;" parent="1" vertex="1">
          <mxGeometry x="1618" y="109" width="338" height="112" as="geometry" />
        </mxCell>
        <mxCell id="O_61zwk5EEJ6vkBen8N2-22" value="- owner: NinjaScriptBase" style="text;strokeColor=none;fillColor=none;align=left;verticalAlign=top;spacingLeft=4;spacingRight=4;overflow=hidden;rotatable=0;points=[[0,0.5],[1,0.5]];portConstraint=eastwest;" parent="O_61zwk5EEJ6vkBen8N2-21" vertex="1">
          <mxGeometry y="26" width="338" height="26" as="geometry" />
        </mxCell>
        <mxCell id="O_61zwk5EEJ6vkBen8N2-23" value="" style="line;strokeWidth=1;fillColor=none;align=left;verticalAlign=middle;spacingTop=-1;spacingLeft=3;spacingRight=3;rotatable=0;labelPosition=right;points=[];portConstraint=eastwest;" parent="O_61zwk5EEJ6vkBen8N2-21" vertex="1">
          <mxGeometry y="52" width="338" height="8" as="geometry" />
        </mxCell>
        <mxCell id="O_61zwk5EEJ6vkBen8N2-24" value="&lt;&lt;constructor&gt;&gt; +PriceActionSwing(owner: NinjaScriptBase)" style="text;strokeColor=none;fillColor=none;align=left;verticalAlign=top;spacingLeft=4;spacingRight=4;overflow=hidden;rotatable=0;points=[[0,0.5],[1,0.5]];portConstraint=eastwest;" parent="O_61zwk5EEJ6vkBen8N2-21" vertex="1">
          <mxGeometry y="60" width="338" height="26" as="geometry" />
        </mxCell>
        <mxCell id="O_61zwk5EEJ6vkBen8N2-25" value="+ Calculate(): Calculation" style="text;strokeColor=none;fillColor=none;align=left;verticalAlign=top;spacingLeft=4;spacingRight=4;overflow=hidden;rotatable=0;points=[[0,0.5],[1,0.5]];portConstraint=eastwest;" parent="O_61zwk5EEJ6vkBen8N2-21" vertex="1">
          <mxGeometry y="86" width="338" height="26" as="geometry" />
        </mxCell>
        <mxCell id="fPNTmjn9pd60Ij1Y-FJk-21" style="edgeStyle=orthogonalEdgeStyle;rounded=0;orthogonalLoop=1;jettySize=auto;html=1;exitX=0;exitY=0.5;exitDx=0;exitDy=0;entryX=1;entryY=0.5;entryDx=0;entryDy=0;startSize=30;endArrow=none;endFill=0;" parent="1" source="7CBWycC-ObVPVQWf6ARU-16" target="oVfhNXQn3vao5zob85Lq-86" edge="1">
          <mxGeometry relative="1" as="geometry">
            <Array as="points">
              <mxPoint x="553" y="119" />
            </Array>
          </mxGeometry>
        </mxCell>
        <mxCell id="fPNTmjn9pd60Ij1Y-FJk-15" style="edgeStyle=orthogonalEdgeStyle;rounded=0;orthogonalLoop=1;jettySize=auto;html=1;exitX=0.5;exitY=0;exitDx=0;exitDy=0;entryX=1;entryY=0.5;entryDx=0;entryDy=0;startSize=30;endArrow=none;endFill=0;" parent="1" source="fPNTmjn9pd60Ij1Y-FJk-4" target="7CBWycC-ObVPVQWf6ARU-49" edge="1">
          <mxGeometry relative="1" as="geometry">
            <Array as="points">
              <mxPoint x="1267" y="918" />
            </Array>
          </mxGeometry>
        </mxCell>
        <mxCell id="fPNTmjn9pd60Ij1Y-FJk-16" value="SwingDrawing" style="swimlane;fontStyle=1;childLayout=stackLayout;horizontal=1;startSize=26;fillColor=none;horizontalStack=0;resizeParent=1;resizeParentMax=0;resizeLast=0;collapsible=1;marginBottom=0;" parent="1" vertex="1">
          <mxGeometry x="-85.5" y="123" width="221" height="115" as="geometry" />
        </mxCell>
        <mxCell id="fPNTmjn9pd60Ij1Y-FJk-17" value="+DrawPoint(owner : NinjaScriptBase,&#xa;                    point : Point)" style="text;strokeColor=none;fillColor=none;align=left;verticalAlign=top;spacingLeft=4;spacingRight=4;overflow=hidden;rotatable=0;points=[[0,0.5],[1,0.5]];portConstraint=eastwest;" parent="fPNTmjn9pd60Ij1Y-FJk-16" vertex="1">
          <mxGeometry y="26" width="221" height="37" as="geometry" />
        </mxCell>
        <mxCell id="fPNTmjn9pd60Ij1Y-FJk-18" value="+DrawZigZag(owner : NinjaScriptBase, &#xa;                       pointOne : Point, &#xa;                       pointTwo : Point)" style="text;strokeColor=none;fillColor=none;align=left;verticalAlign=top;spacingLeft=4;spacingRight=4;overflow=hidden;rotatable=0;points=[[0,0.5],[1,0.5]];portConstraint=eastwest;" parent="fPNTmjn9pd60Ij1Y-FJk-16" vertex="1">
          <mxGeometry y="63" width="221" height="52" as="geometry" />
        </mxCell>
        <mxCell id="oVfhNXQn3vao5zob85Lq-77" value="PriceActionSwingClass" style="swimlane;fontStyle=1;align=center;verticalAlign=top;childLayout=stackLayout;horizontal=1;startSize=26;horizontalStack=0;resizeParent=1;resizeParentMax=0;resizeLast=0;collapsible=1;marginBottom=0;fontSize=12;" parent="1" vertex="1">
          <mxGeometry x="215.5" y="109" width="338" height="164" as="geometry" />
        </mxCell>
        <mxCell id="oVfhNXQn3vao5zob85Lq-86" value="- owner: NinjaScriptBase" style="text;strokeColor=none;fillColor=none;align=left;verticalAlign=top;spacingLeft=4;spacingRight=4;overflow=hidden;rotatable=0;points=[[0,0.5],[1,0.5]];portConstraint=eastwest;" parent="oVfhNXQn3vao5zob85Lq-77" vertex="1">
          <mxGeometry y="26" width="338" height="26" as="geometry" />
        </mxCell>
        <mxCell id="oVfhNXQn3vao5zob85Lq-79" value="" style="line;strokeWidth=1;fillColor=none;align=left;verticalAlign=middle;spacingTop=-1;spacingLeft=3;spacingRight=3;rotatable=0;labelPosition=right;points=[];portConstraint=eastwest;" parent="oVfhNXQn3vao5zob85Lq-77" vertex="1">
          <mxGeometry y="52" width="338" height="8" as="geometry" />
        </mxCell>
        <mxCell id="oVfhNXQn3vao5zob85Lq-80" value="&lt;&lt;constructor&gt;&gt; +PriceActionSwing(owner: NinjaScriptBase)" style="text;strokeColor=none;fillColor=none;align=left;verticalAlign=top;spacingLeft=4;spacingRight=4;overflow=hidden;rotatable=0;points=[[0,0.5],[1,0.5]];portConstraint=eastwest;" parent="oVfhNXQn3vao5zob85Lq-77" vertex="1">
          <mxGeometry y="60" width="338" height="26" as="geometry" />
        </mxCell>
        <mxCell id="oVfhNXQn3vao5zob85Lq-82" value="+ Calculate(): Calculation" style="text;strokeColor=none;fillColor=none;align=left;verticalAlign=top;spacingLeft=4;spacingRight=4;overflow=hidden;rotatable=0;points=[[0,0.5],[1,0.5]];portConstraint=eastwest;" parent="oVfhNXQn3vao5zob85Lq-77" vertex="1">
          <mxGeometry y="86" width="338" height="26" as="geometry" />
        </mxCell>
        <mxCell id="oVfhNXQn3vao5zob85Lq-84" value="+ GetPoint(pointsAgo: int)" style="text;strokeColor=none;fillColor=none;align=left;verticalAlign=top;spacingLeft=4;spacingRight=4;overflow=hidden;rotatable=0;points=[[0,0.5],[1,0.5]];portConstraint=eastwest;" parent="oVfhNXQn3vao5zob85Lq-77" vertex="1">
          <mxGeometry y="112" width="338" height="26" as="geometry" />
        </mxCell>
        <mxCell id="oVfhNXQn3vao5zob85Lq-83" value="- OnPointCalculationUpdate()" style="text;strokeColor=none;fillColor=none;align=left;verticalAlign=top;spacingLeft=4;spacingRight=4;overflow=hidden;rotatable=0;points=[[0,0.5],[1,0.5]];portConstraint=eastwest;" parent="oVfhNXQn3vao5zob85Lq-77" vertex="1">
          <mxGeometry y="138" width="338" height="26" as="geometry" />
        </mxCell>
        <mxCell id="SqsRjnLHIsqS0qZh4drD-10" value="TickCalculation" style="swimlane;fontStyle=1;align=center;verticalAlign=top;childLayout=stackLayout;horizontal=1;startSize=26;horizontalStack=0;resizeParent=1;resizeParentMax=0;resizeLast=0;collapsible=1;marginBottom=0;" parent="1" vertex="1">
          <mxGeometry x="389.5" y="313" width="509" height="89" as="geometry" />
        </mxCell>
        <mxCell id="SqsRjnLHIsqS0qZh4drD-11" value="&lt;&lt;constructor&gt;&gt; +TickCalculation(owner: NinjaScriptBase,&#xa;                                                       priceActionSwingClass: PriceActionSwingClass)" style="text;strokeColor=none;fillColor=none;align=left;verticalAlign=top;spacingLeft=4;spacingRight=4;overflow=hidden;rotatable=0;points=[[0,0.5],[1,0.5]];portConstraint=eastwest;" parent="SqsRjnLHIsqS0qZh4drD-10" vertex="1">
          <mxGeometry y="26" width="509" height="37" as="geometry" />
        </mxCell>
        <mxCell id="SqsRjnLHIsqS0qZh4drD-12" value="# CalculateEachBarSwingPoint(): CalculationData" style="text;strokeColor=none;fillColor=none;align=left;verticalAlign=top;spacingLeft=4;spacingRight=4;overflow=hidden;rotatable=0;points=[[0,0.5],[1,0.5]];portConstraint=eastwest;" parent="SqsRjnLHIsqS0qZh4drD-10" vertex="1">
          <mxGeometry y="63" width="509" height="26" as="geometry" />
        </mxCell>
        <mxCell id="SqsRjnLHIsqS0qZh4drD-1" value="SwingForwadCalculation" style="swimlane;fontStyle=1;align=center;verticalAlign=top;childLayout=stackLayout;horizontal=1;startSize=26;horizontalStack=0;resizeParent=1;resizeParentMax=0;resizeLast=0;collapsible=1;marginBottom=0;" parent="1" vertex="1">
          <mxGeometry x="-152.5" y="313" width="509" height="115" as="geometry" />
        </mxCell>
        <mxCell id="SqsRjnLHIsqS0qZh4drD-4" value="&lt;&lt;constructor&gt;&gt; +SwingForwardCalculation(owner: NinjaScriptBase,&#xa;                                                                       priceActionSwingClass: PriceActionSwingClass)" style="text;strokeColor=none;fillColor=none;align=left;verticalAlign=top;spacingLeft=4;spacingRight=4;overflow=hidden;rotatable=0;points=[[0,0.5],[1,0.5]];portConstraint=eastwest;" parent="SqsRjnLHIsqS0qZh4drD-1" vertex="1">
          <mxGeometry y="26" width="509" height="37" as="geometry" />
        </mxCell>
        <mxCell id="SqsRjnLHIsqS0qZh4drD-6" value="# CalculateEachBarSwingPoint(): CalculationData" style="text;strokeColor=none;fillColor=none;align=left;verticalAlign=top;spacingLeft=4;spacingRight=4;overflow=hidden;rotatable=0;points=[[0,0.5],[1,0.5]];portConstraint=eastwest;" parent="SqsRjnLHIsqS0qZh4drD-1" vertex="1">
          <mxGeometry y="63" width="509" height="26" as="geometry" />
        </mxCell>
        <mxCell id="SqsRjnLHIsqS0qZh4drD-5" value="# CalculateEachTickSwing(): CalculationData" style="text;strokeColor=none;fillColor=none;align=left;verticalAlign=top;spacingLeft=4;spacingRight=4;overflow=hidden;rotatable=0;points=[[0,0.5],[1,0.5]];portConstraint=eastwest;" parent="SqsRjnLHIsqS0qZh4drD-1" vertex="1">
          <mxGeometry y="89" width="509" height="26" as="geometry" />
        </mxCell>
        <mxCell id="7CBWycC-ObVPVQWf6ARU-38" value="Calculation&#xa;" style="swimlane;fontStyle=1;align=center;verticalAlign=top;childLayout=stackLayout;horizontal=1;startSize=26;horizontalStack=0;resizeParent=1;resizeParentMax=0;resizeLast=0;collapsible=1;marginBottom=0;fontSize=12;" parent="1" vertex="1">
          <mxGeometry x="224.5" y="565" width="401" height="621" as="geometry">
            <mxRectangle x="50" y="79" width="92" height="26" as="alternateBounds" />
          </mxGeometry>
        </mxCell>
        <mxCell id="7CBWycC-ObVPVQWf6ARU-39" value="# highs: Series&lt;double&gt;" style="text;strokeColor=none;fillColor=none;align=left;verticalAlign=top;spacingLeft=4;spacingRight=4;overflow=hidden;rotatable=0;points=[[0,0.5],[1,0.5]];portConstraint=eastwest;" parent="7CBWycC-ObVPVQWf6ARU-38" vertex="1">
          <mxGeometry y="26" width="401" height="20" as="geometry" />
        </mxCell>
        <mxCell id="7CBWycC-ObVPVQWf6ARU-42" value="# lows: Series&lt;double&gt;" style="text;strokeColor=none;fillColor=none;align=left;verticalAlign=top;spacingLeft=4;spacingRight=4;overflow=hidden;rotatable=0;points=[[0,0.5],[1,0.5]];portConstraint=eastwest;" parent="7CBWycC-ObVPVQWf6ARU-38" vertex="1">
          <mxGeometry y="46" width="401" height="20" as="geometry" />
        </mxCell>
        <mxCell id="oVfhNXQn3vao5zob85Lq-101" value="# points: List&lt;Point&gt;" style="text;strokeColor=none;fillColor=none;align=left;verticalAlign=top;spacingLeft=4;spacingRight=4;overflow=hidden;rotatable=0;points=[[0,0.5],[1,0.5]];portConstraint=eastwest;" parent="7CBWycC-ObVPVQWf6ARU-38" vertex="1">
          <mxGeometry y="66" width="401" height="20" as="geometry" />
        </mxCell>
        <mxCell id="7CBWycC-ObVPVQWf6ARU-45" value="# owner: NinjaScriptBase" style="text;strokeColor=none;fillColor=none;align=left;verticalAlign=top;spacingLeft=4;spacingRight=4;overflow=hidden;rotatable=0;points=[[0,0.5],[1,0.5]];portConstraint=eastwest;labelBackgroundColor=none;labelBorderColor=none;rounded=0;shadow=0;comic=0;glass=0;container=0;fontColor=#333333;gradientColor=none;" parent="7CBWycC-ObVPVQWf6ARU-38" vertex="1">
          <mxGeometry y="86" width="401" height="20" as="geometry" />
        </mxCell>
        <mxCell id="7CBWycC-ObVPVQWf6ARU-47" value="# priceActionSwingClass: PriceActionSwingClass" style="text;strokeColor=none;fillColor=none;align=left;verticalAlign=top;spacingLeft=4;spacingRight=4;overflow=hidden;rotatable=0;points=[[0,0.5],[1,0.5]];portConstraint=eastwest;" parent="7CBWycC-ObVPVQWf6ARU-38" vertex="1">
          <mxGeometry y="106" width="401" height="20" as="geometry" />
        </mxCell>
        <mxCell id="2YiGUF-b4CgSfO-UEsBh-3" value="&lt;&lt;get&gt;&gt; -calculationData: CalculationData" style="text;strokeColor=none;fillColor=none;align=left;verticalAlign=top;spacingLeft=4;spacingRight=4;overflow=hidden;rotatable=0;points=[[0,0.5],[1,0.5]];portConstraint=eastwest;" parent="7CBWycC-ObVPVQWf6ARU-38" vertex="1">
          <mxGeometry y="126" width="401" height="20" as="geometry" />
        </mxCell>
        <mxCell id="2YiGUF-b4CgSfO-UEsBh-1" value="&lt;&lt;get&gt;&gt; -calculationStage: CalculationStage" style="text;strokeColor=none;fillColor=none;align=left;verticalAlign=top;spacingLeft=4;spacingRight=4;overflow=hidden;rotatable=0;points=[[0,0.5],[1,0.5]];portConstraint=eastwest;" parent="7CBWycC-ObVPVQWf6ARU-38" vertex="1">
          <mxGeometry y="146" width="401" height="20" as="geometry" />
        </mxCell>
        <mxCell id="7CBWycC-ObVPVQWf6ARU-40" value="" style="line;strokeWidth=1;fillColor=none;align=left;verticalAlign=middle;spacingTop=-1;spacingLeft=3;spacingRight=3;rotatable=0;labelPosition=right;points=[];portConstraint=eastwest;" parent="7CBWycC-ObVPVQWf6ARU-38" vertex="1">
          <mxGeometry y="166" width="401" height="20" as="geometry" />
        </mxCell>
        <mxCell id="7CBWycC-ObVPVQWf6ARU-41" value="&lt;&lt;constructor&gt;&gt; #Calculation(owner: NinjaScriptBase,&#xa;                                                 priceActionSwing: PriceActionSwing)" style="text;strokeColor=none;fillColor=none;align=left;verticalAlign=top;spacingLeft=4;spacingRight=4;overflow=hidden;rotatable=0;points=[[0,0.5],[1,0.5]];portConstraint=eastwest;" parent="7CBWycC-ObVPVQWf6ARU-38" vertex="1">
          <mxGeometry y="186" width="401" height="37" as="geometry" />
        </mxCell>
        <mxCell id="7CBWycC-ObVPVQWf6ARU-50" value="+ LastSideTrend(): Point.SidePoint" style="text;strokeColor=none;fillColor=none;align=left;verticalAlign=top;spacingLeft=4;spacingRight=4;overflow=hidden;rotatable=0;points=[[0,0.5],[1,0.5]];portConstraint=eastwest;" parent="7CBWycC-ObVPVQWf6ARU-38" vertex="1">
          <mxGeometry y="223" width="401" height="20" as="geometry" />
        </mxCell>
        <mxCell id="7CBWycC-ObVPVQWf6ARU-52" value="+ LastPrice(): double" style="text;strokeColor=none;fillColor=none;align=left;verticalAlign=top;spacingLeft=4;spacingRight=4;overflow=hidden;rotatable=0;points=[[0,0.5],[1,0.5]];portConstraint=eastwest;" parent="7CBWycC-ObVPVQWf6ARU-38" vertex="1">
          <mxGeometry y="243" width="401" height="20" as="geometry" />
        </mxCell>
        <mxCell id="7CBWycC-ObVPVQWf6ARU-53" value="+ LastHigh(): Point" style="text;strokeColor=none;fillColor=none;align=left;verticalAlign=top;spacingLeft=4;spacingRight=4;overflow=hidden;rotatable=0;points=[[0,0.5],[1,0.5]];portConstraint=eastwest;" parent="7CBWycC-ObVPVQWf6ARU-38" vertex="1">
          <mxGeometry y="263" width="401" height="20" as="geometry" />
        </mxCell>
        <mxCell id="7CBWycC-ObVPVQWf6ARU-54" value="+ LastLow(): Point" style="text;strokeColor=none;fillColor=none;align=left;verticalAlign=top;spacingLeft=4;spacingRight=4;overflow=hidden;rotatable=0;points=[[0,0.5],[1,0.5]];portConstraint=eastwest;" parent="7CBWycC-ObVPVQWf6ARU-38" vertex="1">
          <mxGeometry y="283" width="401" height="20" as="geometry" />
        </mxCell>
        <mxCell id="7CBWycC-ObVPVQWf6ARU-55" value="+ GetPointsList(): List&lt;Point&gt;" style="text;strokeColor=none;fillColor=none;align=left;verticalAlign=top;spacingLeft=4;spacingRight=4;overflow=hidden;rotatable=0;points=[[0,0.5],[1,0.5]];portConstraint=eastwest;" parent="7CBWycC-ObVPVQWf6ARU-38" vertex="1">
          <mxGeometry y="303" width="401" height="20" as="geometry" />
        </mxCell>
        <mxCell id="7CBWycC-ObVPVQWf6ARU-56" value="+ GetPoint(pointsAgo: int): Point" style="text;strokeColor=none;fillColor=none;align=left;verticalAlign=top;spacingLeft=4;spacingRight=4;overflow=hidden;rotatable=0;points=[[0,0.5],[1,0.5]];portConstraint=eastwest;" parent="7CBWycC-ObVPVQWf6ARU-38" vertex="1">
          <mxGeometry y="323" width="401" height="20" as="geometry" />
        </mxCell>
        <mxCell id="7CBWycC-ObVPVQWf6ARU-49" value="# Calculate()" style="text;strokeColor=none;fillColor=none;align=left;verticalAlign=top;spacingLeft=4;spacingRight=4;overflow=hidden;rotatable=0;points=[[0,0.5],[1,0.5]];portConstraint=eastwest;" parent="7CBWycC-ObVPVQWf6ARU-38" vertex="1">
          <mxGeometry y="343" width="401" height="20" as="geometry" />
        </mxCell>
        <mxCell id="oVfhNXQn3vao5zob85Lq-1" value="# CalculateFirstSwingPoint(): CalculationData" style="text;strokeColor=none;fillColor=none;align=left;verticalAlign=top;spacingLeft=4;spacingRight=4;overflow=hidden;rotatable=0;points=[[0,0.5],[1,0.5]];portConstraint=eastwest;" parent="7CBWycC-ObVPVQWf6ARU-38" vertex="1">
          <mxGeometry y="363" width="401" height="20" as="geometry" />
        </mxCell>
        <mxCell id="oVfhNXQn3vao5zob85Lq-2" value="# CalculateEachBarSwingPoint(): CalculationData" style="text;strokeColor=none;fillColor=none;align=left;verticalAlign=top;spacingLeft=4;spacingRight=4;overflow=hidden;rotatable=0;points=[[0,0.5],[1,0.5]];portConstraint=eastwest;" parent="7CBWycC-ObVPVQWf6ARU-38" vertex="1">
          <mxGeometry y="383" width="401" height="20" as="geometry" />
        </mxCell>
        <mxCell id="fPNTmjn9pd60Ij1Y-FJk-27" value="# CalculateEachTickSwingPoint(): CalculationData" style="text;strokeColor=none;fillColor=none;align=left;verticalAlign=top;spacingLeft=4;spacingRight=4;overflow=hidden;rotatable=0;points=[[0,0.5],[1,0.5]];portConstraint=eastwest;" parent="7CBWycC-ObVPVQWf6ARU-38" vertex="1">
          <mxGeometry y="403" width="401" height="20" as="geometry" />
        </mxCell>
        <mxCell id="oVfhNXQn3vao5zob85Lq-3" value="- SetValues()" style="text;strokeColor=none;fillColor=none;align=left;verticalAlign=top;spacingLeft=4;spacingRight=4;overflow=hidden;rotatable=0;points=[[0,0.5],[1,0.5]];portConstraint=eastwest;" parent="7CBWycC-ObVPVQWf6ARU-38" vertex="1">
          <mxGeometry y="423" width="401" height="20" as="geometry" />
        </mxCell>
        <mxCell id="oVfhNXQn3vao5zob85Lq-4" value="- AddOrUpdatePointsIfNewSwing(calculationData: CalculationData, &#xa;                                                      calculationStage: CalculationStage)" style="text;strokeColor=none;fillColor=none;align=left;verticalAlign=top;spacingLeft=4;spacingRight=4;overflow=hidden;rotatable=0;points=[[0,0.5],[1,0.5]];portConstraint=eastwest;fontSize=12;" parent="7CBWycC-ObVPVQWf6ARU-38" vertex="1">
          <mxGeometry y="443" width="401" height="39" as="geometry" />
        </mxCell>
        <mxCell id="fPNTmjn9pd60Ij1Y-FJk-1" value="- DefaultAddUpdatePointsManagement(calculationData: CalculationData, &#xa;                                                      calculationStage: CalculationStage)" style="text;strokeColor=none;fillColor=none;align=left;verticalAlign=top;spacingLeft=4;spacingRight=4;overflow=hidden;rotatable=0;points=[[0,0.5],[1,0.5]];portConstraint=eastwest;fontSize=12;" parent="7CBWycC-ObVPVQWf6ARU-38" vertex="1">
          <mxGeometry y="482" width="401" height="39" as="geometry" />
        </mxCell>
        <mxCell id="oVfhNXQn3vao5zob85Lq-5" value="- AddHigh()" style="text;strokeColor=none;fillColor=none;align=left;verticalAlign=top;spacingLeft=4;spacingRight=4;overflow=hidden;rotatable=0;points=[[0,0.5],[1,0.5]];portConstraint=eastwest;fontSize=12;" parent="7CBWycC-ObVPVQWf6ARU-38" vertex="1">
          <mxGeometry y="521" width="401" height="20" as="geometry" />
        </mxCell>
        <mxCell id="oVfhNXQn3vao5zob85Lq-6" value="- AddLow()" style="text;strokeColor=none;fillColor=none;align=left;verticalAlign=top;spacingLeft=4;spacingRight=4;overflow=hidden;rotatable=0;points=[[0,0.5],[1,0.5]];portConstraint=eastwest;fontSize=12;" parent="7CBWycC-ObVPVQWf6ARU-38" vertex="1">
          <mxGeometry y="541" width="401" height="20" as="geometry" />
        </mxCell>
        <mxCell id="oVfhNXQn3vao5zob85Lq-7" value="- AddUnknow()" style="text;strokeColor=none;fillColor=none;align=left;verticalAlign=top;spacingLeft=4;spacingRight=4;overflow=hidden;rotatable=0;points=[[0,0.5],[1,0.5]];portConstraint=eastwest;fontSize=12;" parent="7CBWycC-ObVPVQWf6ARU-38" vertex="1">
          <mxGeometry y="561" width="401" height="20" as="geometry" />
        </mxCell>
        <mxCell id="oVfhNXQn3vao5zob85Lq-8" value="- UpdateHigh()" style="text;strokeColor=none;fillColor=none;align=left;verticalAlign=top;spacingLeft=4;spacingRight=4;overflow=hidden;rotatable=0;points=[[0,0.5],[1,0.5]];portConstraint=eastwest;fontSize=12;" parent="7CBWycC-ObVPVQWf6ARU-38" vertex="1">
          <mxGeometry y="581" width="401" height="20" as="geometry" />
        </mxCell>
        <mxCell id="oVfhNXQn3vao5zob85Lq-9" value="- UpdateLow()" style="text;strokeColor=none;fillColor=none;align=left;verticalAlign=top;spacingLeft=4;spacingRight=4;overflow=hidden;rotatable=0;points=[[0,0.5],[1,0.5]];portConstraint=eastwest;fontSize=12;" parent="7CBWycC-ObVPVQWf6ARU-38" vertex="1">
          <mxGeometry y="601" width="401" height="20" as="geometry" />
        </mxCell>
        <mxCell id="BOfF1mm6ojH2ukzw7EzY-1" style="edgeStyle=orthogonalEdgeStyle;rounded=0;orthogonalLoop=1;jettySize=auto;html=1;exitX=0.75;exitY=0;exitDx=0;exitDy=0;entryX=0;entryY=0.5;entryDx=0;entryDy=0;startSize=30;endArrow=circlePlus;endFill=0;" parent="1" source="oVfhNXQn3vao5zob85Lq-21" target="7CBWycC-ObVPVQWf6ARU-47" edge="1">
          <mxGeometry relative="1" as="geometry">
            <Array as="points">
              <mxPoint x="102" y="681" />
            </Array>
          </mxGeometry>
        </mxCell>
        <mxCell id="oVfhNXQn3vao5zob85Lq-21" value="CalculationData" style="swimlane;fontStyle=1;align=center;verticalAlign=top;childLayout=stackLayout;horizontal=1;startSize=26;horizontalStack=0;resizeParent=1;resizeParentMax=0;resizeLast=0;collapsible=1;marginBottom=0;fontSize=12;" parent="1" vertex="1">
          <mxGeometry x="-164" y="714" width="355" height="198" as="geometry" />
        </mxCell>
        <mxCell id="oVfhNXQn3vao5zob85Lq-22" value="+ isNewSwing: bool" style="text;strokeColor=none;fillColor=none;align=left;verticalAlign=top;spacingLeft=4;spacingRight=4;overflow=hidden;rotatable=0;points=[[0,0.5],[1,0.5]];portConstraint=eastwest;" parent="oVfhNXQn3vao5zob85Lq-21" vertex="1">
          <mxGeometry y="26" width="355" height="20" as="geometry" />
        </mxCell>
        <mxCell id="oVfhNXQn3vao5zob85Lq-25" value="+ price: int" style="text;strokeColor=none;fillColor=none;align=left;verticalAlign=top;spacingLeft=4;spacingRight=4;overflow=hidden;rotatable=0;points=[[0,0.5],[1,0.5]];portConstraint=eastwest;" parent="oVfhNXQn3vao5zob85Lq-21" vertex="1">
          <mxGeometry y="46" width="355" height="20" as="geometry" />
        </mxCell>
        <mxCell id="oVfhNXQn3vao5zob85Lq-26" value="+ barIndex: int" style="text;strokeColor=none;fillColor=none;align=left;verticalAlign=top;spacingLeft=4;spacingRight=4;overflow=hidden;rotatable=0;points=[[0,0.5],[1,0.5]];portConstraint=eastwest;" parent="oVfhNXQn3vao5zob85Lq-21" vertex="1">
          <mxGeometry y="66" width="355" height="20" as="geometry" />
        </mxCell>
        <mxCell id="oVfhNXQn3vao5zob85Lq-27" value="+ sideSwing: Point.SidePoint" style="text;strokeColor=none;fillColor=none;align=left;verticalAlign=top;spacingLeft=4;spacingRight=4;overflow=hidden;rotatable=0;points=[[0,0.5],[1,0.5]];portConstraint=eastwest;" parent="oVfhNXQn3vao5zob85Lq-21" vertex="1">
          <mxGeometry y="86" width="355" height="20" as="geometry" />
        </mxCell>
        <mxCell id="oVfhNXQn3vao5zob85Lq-23" value="" style="line;strokeWidth=1;fillColor=none;align=left;verticalAlign=middle;spacingTop=-1;spacingLeft=3;spacingRight=3;rotatable=0;labelPosition=right;points=[];portConstraint=eastwest;" parent="oVfhNXQn3vao5zob85Lq-21" vertex="1">
          <mxGeometry y="106" width="355" height="8" as="geometry" />
        </mxCell>
        <mxCell id="oVfhNXQn3vao5zob85Lq-24" value="&lt;&lt;constructor&gt;&gt; +CalculationData(isNewSwing: bool,&#xa;                                                        price: double,&#xa;                                                        barIndex: int&#xa;                                                        sideSwing: Point.SidePoint)" style="text;strokeColor=none;fillColor=none;align=left;verticalAlign=top;spacingLeft=4;spacingRight=4;overflow=hidden;rotatable=0;points=[[0,0.5],[1,0.5]];portConstraint=eastwest;" parent="oVfhNXQn3vao5zob85Lq-21" vertex="1">
          <mxGeometry y="114" width="355" height="64" as="geometry" />
        </mxCell>
        <mxCell id="oVfhNXQn3vao5zob85Lq-28" value="&lt;&lt;constructor&gt;&gt; +CalculationData(isNewSwing: bool)" style="text;strokeColor=none;fillColor=none;align=left;verticalAlign=top;spacingLeft=4;spacingRight=4;overflow=hidden;rotatable=0;points=[[0,0.5],[1,0.5]];portConstraint=eastwest;" parent="oVfhNXQn3vao5zob85Lq-21" vertex="1">
          <mxGeometry y="178" width="355" height="20" as="geometry" />
        </mxCell>
        <mxCell id="oVfhNXQn3vao5zob85Lq-16" value="&lt;&lt;enumeration&gt;&gt;&#xa;CalculationStage" style="swimlane;fontStyle=1;childLayout=stackLayout;horizontal=1;startSize=26;fillColor=none;horizontalStack=0;resizeParent=1;resizeParentMax=0;resizeLast=0;collapsible=1;marginBottom=0;fontSize=12;" parent="1" vertex="1">
          <mxGeometry x="-56.5" y="958" width="140" height="86" as="geometry" />
        </mxCell>
        <mxCell id="oVfhNXQn3vao5zob85Lq-17" value="FirstPoint" style="text;strokeColor=none;fillColor=none;align=left;verticalAlign=top;spacingLeft=4;spacingRight=4;overflow=hidden;rotatable=0;points=[[0,0.5],[1,0.5]];portConstraint=eastwest;" parent="oVfhNXQn3vao5zob85Lq-16" vertex="1">
          <mxGeometry y="26" width="140" height="20" as="geometry" />
        </mxCell>
        <mxCell id="oVfhNXQn3vao5zob85Lq-18" value="EachBarSwingPoint" style="text;strokeColor=none;fillColor=none;align=left;verticalAlign=top;spacingLeft=4;spacingRight=4;overflow=hidden;rotatable=0;points=[[0,0.5],[1,0.5]];portConstraint=eastwest;" parent="oVfhNXQn3vao5zob85Lq-16" vertex="1">
          <mxGeometry y="46" width="140" height="20" as="geometry" />
        </mxCell>
        <mxCell id="oVfhNXQn3vao5zob85Lq-19" value="EachTickSwingPoint" style="text;strokeColor=none;fillColor=none;align=left;verticalAlign=top;spacingLeft=4;spacingRight=4;overflow=hidden;rotatable=0;points=[[0,0.5],[1,0.5]];portConstraint=eastwest;" parent="oVfhNXQn3vao5zob85Lq-16" vertex="1">
          <mxGeometry y="66" width="140" height="20" as="geometry" />
        </mxCell>
        <mxCell id="0r7TK91oGUDoyeQTB4Md-2" style="edgeStyle=orthogonalEdgeStyle;rounded=0;orthogonalLoop=1;jettySize=auto;html=1;entryX=0.763;entryY=1.022;entryDx=0;entryDy=0;entryPerimeter=0;endArrow=none;endFill=0;" parent="1" source="O_61zwk5EEJ6vkBen8N2-17" target="7CBWycC-ObVPVQWf6ARU-29" edge="1">
          <mxGeometry relative="1" as="geometry">
            <Array as="points">
              <mxPoint x="1251" y="434" />
              <mxPoint x="1330" y="434" />
            </Array>
          </mxGeometry>
        </mxCell>
        <mxCell id="0r7TK91oGUDoyeQTB4Md-3" style="edgeStyle=orthogonalEdgeStyle;rounded=0;orthogonalLoop=1;jettySize=auto;html=1;exitX=0.75;exitY=0;exitDx=0;exitDy=0;endArrow=none;endFill=0;entryX=-0.006;entryY=0.061;entryDx=0;entryDy=0;entryPerimeter=0;" parent="1" source="O_61zwk5EEJ6vkBen8N2-17" target="O_61zwk5EEJ6vkBen8N2-21" edge="1">
          <mxGeometry relative="1" as="geometry">
            <Array as="points">
              <mxPoint x="1326" y="447" />
              <mxPoint x="1463" y="447" />
              <mxPoint x="1463" y="116" />
            </Array>
          </mxGeometry>
        </mxCell>
        <mxCell id="O_61zwk5EEJ6vkBen8N2-17" value="MatrixPoint" style="swimlane;fontStyle=1;childLayout=stackLayout;horizontal=1;startSize=26;fillColor=none;horizontalStack=0;resizeParent=1;resizeParentMax=0;resizeLast=0;collapsible=1;marginBottom=0;fontSize=12;" parent="1" vertex="1">
          <mxGeometry x="1101" y="484" width="300" height="74" as="geometry" />
        </mxCell>
        <mxCell id="O_61zwk5EEJ6vkBen8N2-18" value="&lt;&lt;get&gt;&gt; -pointsList: List&lt;Point&gt;" style="text;strokeColor=none;fillColor=none;align=left;verticalAlign=top;spacingLeft=4;spacingRight=4;overflow=hidden;rotatable=0;points=[[0,0.5],[1,0.5]];portConstraint=eastwest;" parent="O_61zwk5EEJ6vkBen8N2-17" vertex="1">
          <mxGeometry y="26" width="300" height="20" as="geometry" />
        </mxCell>
        <mxCell id="O_61zwk5EEJ6vkBen8N2-19" value="" style="line;strokeWidth=1;fillColor=none;align=left;verticalAlign=middle;spacingTop=-1;spacingLeft=3;spacingRight=3;rotatable=0;labelPosition=right;points=[];portConstraint=eastwest;fontSize=16;" parent="O_61zwk5EEJ6vkBen8N2-17" vertex="1">
          <mxGeometry y="46" width="300" height="8" as="geometry" />
        </mxCell>
        <mxCell id="O_61zwk5EEJ6vkBen8N2-20" value="&lt;&lt;constructor&gt;&gt; + Point()" style="text;strokeColor=none;fillColor=none;align=left;verticalAlign=top;spacingLeft=4;spacingRight=4;overflow=hidden;rotatable=0;points=[[0,0.5],[1,0.5]];portConstraint=eastwest;fontSize=12;" parent="O_61zwk5EEJ6vkBen8N2-17" vertex="1">
          <mxGeometry y="54" width="300" height="20" as="geometry" />
        </mxCell>
        <mxCell id="oVfhNXQn3vao5zob85Lq-35" value="LogPrinter" style="swimlane;fontStyle=1;childLayout=stackLayout;horizontal=1;startSize=26;fillColor=none;horizontalStack=0;resizeParent=1;resizeParentMax=0;resizeLast=0;collapsible=1;marginBottom=0;fontSize=12;" parent="1" vertex="1">
          <mxGeometry x="1111" y="664" width="280" height="184" as="geometry" />
        </mxCell>
        <mxCell id="oVfhNXQn3vao5zob85Lq-36" value="- lastBarIndex: int" style="text;strokeColor=none;fillColor=none;align=left;verticalAlign=top;spacingLeft=4;spacingRight=4;overflow=hidden;rotatable=0;points=[[0,0.5],[1,0.5]];portConstraint=eastwest;" parent="oVfhNXQn3vao5zob85Lq-35" vertex="1">
          <mxGeometry y="26" width="280" height="20" as="geometry" />
        </mxCell>
        <mxCell id="oVfhNXQn3vao5zob85Lq-37" value="- invisibleIndicator: List&lt;NinjaScriptBase&gt;" style="text;strokeColor=none;fillColor=none;align=left;verticalAlign=top;spacingLeft=4;spacingRight=4;overflow=hidden;rotatable=0;points=[[0,0.5],[1,0.5]];portConstraint=eastwest;" parent="oVfhNXQn3vao5zob85Lq-35" vertex="1">
          <mxGeometry y="46" width="280" height="20" as="geometry" />
        </mxCell>
        <mxCell id="oVfhNXQn3vao5zob85Lq-40" value="" style="line;strokeWidth=1;fillColor=none;align=left;verticalAlign=middle;spacingTop=-1;spacingLeft=3;spacingRight=3;rotatable=0;labelPosition=right;points=[];portConstraint=eastwest;fontSize=12;" parent="oVfhNXQn3vao5zob85Lq-35" vertex="1">
          <mxGeometry y="66" width="280" height="8" as="geometry" />
        </mxCell>
        <mxCell id="oVfhNXQn3vao5zob85Lq-41" value="+ Print(owner: NinjaScriptBase&#xa;           text: object)" style="text;strokeColor=none;fillColor=none;align=left;verticalAlign=top;spacingLeft=4;spacingRight=4;overflow=hidden;rotatable=0;points=[[0,0.5],[1,0.5]];portConstraint=eastwest;fontSize=12;" parent="oVfhNXQn3vao5zob85Lq-35" vertex="1">
          <mxGeometry y="74" width="280" height="35" as="geometry" />
        </mxCell>
        <mxCell id="oVfhNXQn3vao5zob85Lq-42" value="+ PrintError(owner: NinjaScriptBase&#xa;           text: object)" style="text;strokeColor=none;fillColor=none;align=left;verticalAlign=top;spacingLeft=4;spacingRight=4;overflow=hidden;rotatable=0;points=[[0,0.5],[1,0.5]];portConstraint=eastwest;fontSize=12;" parent="oVfhNXQn3vao5zob85Lq-35" vertex="1">
          <mxGeometry y="109" width="280" height="35" as="geometry" />
        </mxCell>
        <mxCell id="oVfhNXQn3vao5zob85Lq-43" value="+ ResetOutputTabs()" style="text;strokeColor=none;fillColor=none;align=left;verticalAlign=top;spacingLeft=4;spacingRight=4;overflow=hidden;rotatable=0;points=[[0,0.5],[1,0.5]];portConstraint=eastwest;fontSize=12;" parent="oVfhNXQn3vao5zob85Lq-35" vertex="1">
          <mxGeometry y="144" width="280" height="20" as="geometry" />
        </mxCell>
        <mxCell id="oVfhNXQn3vao5zob85Lq-44" value="+ SetIndicatorAsInvisible(owner: NinjaScriptBase)" style="text;strokeColor=none;fillColor=none;align=left;verticalAlign=top;spacingLeft=4;spacingRight=4;overflow=hidden;rotatable=0;points=[[0,0.5],[1,0.5]];portConstraint=eastwest;fontSize=12;" parent="oVfhNXQn3vao5zob85Lq-35" vertex="1">
          <mxGeometry y="164" width="280" height="20" as="geometry" />
        </mxCell>
        <mxCell id="O_61zwk5EEJ6vkBen8N2-2" value="Calculation&#xa;" style="swimlane;fontStyle=1;align=center;verticalAlign=top;childLayout=stackLayout;horizontal=1;startSize=26;horizontalStack=0;resizeParent=1;resizeParentMax=0;resizeLast=0;collapsible=1;marginBottom=0;fontSize=12;" parent="1" vertex="1">
          <mxGeometry x="1599.5" y="283" width="410.5" height="324" as="geometry">
            <mxRectangle x="50" y="79" width="92" height="26" as="alternateBounds" />
          </mxGeometry>
        </mxCell>
        <mxCell id="O_61zwk5EEJ6vkBen8N2-3" value="# pivots: List&lt;MatrixPoint&gt;" style="text;strokeColor=none;fillColor=none;align=left;verticalAlign=top;spacingLeft=4;spacingRight=4;overflow=hidden;rotatable=0;points=[[0,0.5],[1,0.5]];portConstraint=eastwest;" parent="O_61zwk5EEJ6vkBen8N2-2" vertex="1">
          <mxGeometry y="26" width="410.5" height="20" as="geometry" />
        </mxCell>
        <mxCell id="O_61zwk5EEJ6vkBen8N2-4" value="# owner: NinjaScriptBase" style="text;strokeColor=none;fillColor=none;align=left;verticalAlign=top;spacingLeft=4;spacingRight=4;overflow=hidden;rotatable=0;points=[[0,0.5],[1,0.5]];portConstraint=eastwest;" parent="O_61zwk5EEJ6vkBen8N2-2" vertex="1">
          <mxGeometry y="46" width="410.5" height="20" as="geometry" />
        </mxCell>
        <mxCell id="O_61zwk5EEJ6vkBen8N2-5" value="# dowPivotClass: DowPivotClass" style="text;strokeColor=none;fillColor=none;align=left;verticalAlign=top;spacingLeft=4;spacingRight=4;overflow=hidden;rotatable=0;points=[[0,0.5],[1,0.5]];portConstraint=eastwest;" parent="O_61zwk5EEJ6vkBen8N2-2" vertex="1">
          <mxGeometry y="66" width="410.5" height="20" as="geometry" />
        </mxCell>
        <mxCell id="O_61zwk5EEJ6vkBen8N2-6" value="" style="line;strokeWidth=1;fillColor=none;align=left;verticalAlign=middle;spacingTop=-1;spacingLeft=3;spacingRight=3;rotatable=0;labelPosition=right;points=[];portConstraint=eastwest;" parent="O_61zwk5EEJ6vkBen8N2-2" vertex="1">
          <mxGeometry y="86" width="410.5" height="8" as="geometry" />
        </mxCell>
        <mxCell id="O_61zwk5EEJ6vkBen8N2-7" value="&lt;&lt;constructor&gt;&gt; +Calculation(owner: NinjaScriptBase,&#xa;                                                dowPivotClass: DowPivotClass)" style="text;strokeColor=none;fillColor=none;align=left;verticalAlign=top;spacingLeft=4;spacingRight=4;overflow=hidden;rotatable=0;points=[[0,0.5],[1,0.5]];portConstraint=eastwest;" parent="O_61zwk5EEJ6vkBen8N2-2" vertex="1">
          <mxGeometry y="94" width="410.5" height="52" as="geometry" />
        </mxCell>
        <mxCell id="O_61zwk5EEJ6vkBen8N2-8" value="+ Calculate()" style="text;strokeColor=none;fillColor=none;align=left;verticalAlign=top;spacingLeft=4;spacingRight=4;overflow=hidden;rotatable=0;points=[[0,0.5],[1,0.5]];portConstraint=eastwest;" parent="O_61zwk5EEJ6vkBen8N2-2" vertex="1">
          <mxGeometry y="146" width="410.5" height="20" as="geometry" />
        </mxCell>
        <mxCell id="O_61zwk5EEJ6vkBen8N2-10" value="# CalculateEachBarMatrixPoint(): CalculationData" style="text;strokeColor=none;fillColor=none;align=left;verticalAlign=top;spacingLeft=4;spacingRight=4;overflow=hidden;rotatable=0;points=[[0,0.5],[1,0.5]];portConstraint=eastwest;" parent="O_61zwk5EEJ6vkBen8N2-2" vertex="1">
          <mxGeometry y="166" width="410.5" height="20" as="geometry" />
        </mxCell>
        <mxCell id="O_61zwk5EEJ6vkBen8N2-11" value="# CalculateEachTickMatrixPoint(): CalculationData" style="text;strokeColor=none;fillColor=none;align=left;verticalAlign=top;spacingLeft=4;spacingRight=4;overflow=hidden;rotatable=0;points=[[0,0.5],[1,0.5]];portConstraint=eastwest;" parent="O_61zwk5EEJ6vkBen8N2-2" vertex="1">
          <mxGeometry y="186" width="410.5" height="20" as="geometry" />
        </mxCell>
        <mxCell id="O_61zwk5EEJ6vkBen8N2-12" value="- AddOrUpdatePointsIfNewMatrixPoint(calculationData: CalculationData, &#xa;                                                               calculationStage: CalculationStage)" style="text;strokeColor=none;fillColor=none;align=left;verticalAlign=top;spacingLeft=4;spacingRight=4;overflow=hidden;rotatable=0;points=[[0,0.5],[1,0.5]];portConstraint=eastwest;fontSize=12;" parent="O_61zwk5EEJ6vkBen8N2-2" vertex="1">
          <mxGeometry y="206" width="410.5" height="38" as="geometry" />
        </mxCell>
        <mxCell id="O_61zwk5EEJ6vkBen8N2-13" value="- AddHigh()" style="text;strokeColor=none;fillColor=none;align=left;verticalAlign=top;spacingLeft=4;spacingRight=4;overflow=hidden;rotatable=0;points=[[0,0.5],[1,0.5]];portConstraint=eastwest;fontSize=12;" parent="O_61zwk5EEJ6vkBen8N2-2" vertex="1">
          <mxGeometry y="244" width="410.5" height="20" as="geometry" />
        </mxCell>
        <mxCell id="O_61zwk5EEJ6vkBen8N2-14" value="- AddLow()" style="text;strokeColor=none;fillColor=none;align=left;verticalAlign=top;spacingLeft=4;spacingRight=4;overflow=hidden;rotatable=0;points=[[0,0.5],[1,0.5]];portConstraint=eastwest;fontSize=12;" parent="O_61zwk5EEJ6vkBen8N2-2" vertex="1">
          <mxGeometry y="264" width="410.5" height="20" as="geometry" />
        </mxCell>
        <mxCell id="O_61zwk5EEJ6vkBen8N2-15" value="- UpdateHigh()" style="text;strokeColor=none;fillColor=none;align=left;verticalAlign=top;spacingLeft=4;spacingRight=4;overflow=hidden;rotatable=0;points=[[0,0.5],[1,0.5]];portConstraint=eastwest;fontSize=12;" parent="O_61zwk5EEJ6vkBen8N2-2" vertex="1">
          <mxGeometry y="284" width="410.5" height="20" as="geometry" />
        </mxCell>
        <mxCell id="O_61zwk5EEJ6vkBen8N2-16" value="- UpdateLow()" style="text;strokeColor=none;fillColor=none;align=left;verticalAlign=top;spacingLeft=4;spacingRight=4;overflow=hidden;rotatable=0;points=[[0,0.5],[1,0.5]];portConstraint=eastwest;fontSize=12;" parent="O_61zwk5EEJ6vkBen8N2-2" vertex="1">
          <mxGeometry y="304" width="410.5" height="20" as="geometry" />
        </mxCell>
        <mxCell id="h1larPxez1PpKjTLSr6r-9" value="" style="edgeStyle=orthogonalEdgeStyle;rounded=0;orthogonalLoop=1;jettySize=auto;html=1;endArrow=none;endFill=0;" edge="1" parent="1" source="fPNTmjn9pd60Ij1Y-FJk-4" target="O_61zwk5EEJ6vkBen8N2-2">
          <mxGeometry relative="1" as="geometry">
            <mxPoint x="1267" y="871" as="targetPoint" />
          </mxGeometry>
        </mxCell>
        <mxCell id="h1larPxez1PpKjTLSr6r-10" value="&lt;br&gt;" style="edgeLabel;html=1;align=center;verticalAlign=middle;resizable=0;points=[];" vertex="1" connectable="0" parent="h1larPxez1PpKjTLSr6r-9">
          <mxGeometry x="0.6959" y="-2" relative="1" as="geometry">
            <mxPoint as="offset" />
          </mxGeometry>
        </mxCell>
        <mxCell id="fPNTmjn9pd60Ij1Y-FJk-4" value="&lt;&lt;struct&gt;&gt;&#xa;CalculationData" style="swimlane;fontStyle=1;align=center;verticalAlign=middle;childLayout=stackLayout;horizontal=1;startSize=30;horizontalStack=0;resizeParent=1;resizeParentMax=0;resizeLast=0;collapsible=1;marginBottom=0;labelPosition=center;verticalLabelPosition=middle;" parent="1" vertex="1">
          <mxGeometry x="1137" y="951" width="260" height="216" as="geometry" />
        </mxCell>
        <mxCell id="fPNTmjn9pd60Ij1Y-FJk-5" value="+isNewSwing : bool" style="text;strokeColor=none;fillColor=none;align=left;verticalAlign=top;spacingLeft=4;spacingRight=4;overflow=hidden;rotatable=0;points=[[0,0.5],[1,0.5]];portConstraint=eastwest;" parent="fPNTmjn9pd60Ij1Y-FJk-4" vertex="1">
          <mxGeometry y="30" width="260" height="20" as="geometry" />
        </mxCell>
        <mxCell id="fPNTmjn9pd60Ij1Y-FJk-9" value="+price : double" style="text;strokeColor=none;fillColor=none;align=left;verticalAlign=top;spacingLeft=4;spacingRight=4;overflow=hidden;rotatable=0;points=[[0,0.5],[1,0.5]];portConstraint=eastwest;" parent="fPNTmjn9pd60Ij1Y-FJk-4" vertex="1">
          <mxGeometry y="50" width="260" height="20" as="geometry" />
        </mxCell>
        <mxCell id="fPNTmjn9pd60Ij1Y-FJk-10" value="+barIndex : int" style="text;strokeColor=none;fillColor=none;align=left;verticalAlign=top;spacingLeft=4;spacingRight=4;overflow=hidden;rotatable=0;points=[[0,0.5],[1,0.5]];portConstraint=eastwest;" parent="fPNTmjn9pd60Ij1Y-FJk-4" vertex="1">
          <mxGeometry y="70" width="260" height="20" as="geometry" />
        </mxCell>
        <mxCell id="fPNTmjn9pd60Ij1Y-FJk-11" value="+sideSwing : Point.SidePoint" style="text;strokeColor=none;fillColor=none;align=left;verticalAlign=top;spacingLeft=4;spacingRight=4;overflow=hidden;rotatable=0;points=[[0,0.5],[1,0.5]];portConstraint=eastwest;" parent="fPNTmjn9pd60Ij1Y-FJk-4" vertex="1">
          <mxGeometry y="90" width="260" height="20" as="geometry" />
        </mxCell>
        <mxCell id="fPNTmjn9pd60Ij1Y-FJk-6" value="" style="line;strokeWidth=1;fillColor=none;align=left;verticalAlign=middle;spacingTop=-1;spacingLeft=3;spacingRight=3;rotatable=0;labelPosition=right;points=[];portConstraint=eastwest;" parent="fPNTmjn9pd60Ij1Y-FJk-4" vertex="1">
          <mxGeometry y="110" width="260" height="20" as="geometry" />
        </mxCell>
        <mxCell id="fPNTmjn9pd60Ij1Y-FJk-7" value="+CalculationData(isNewSwing : bool, &#xa;                             price : double, &#xa;                             barIndex : int, &#xa;                             sideSwing : Point.SidePoint)" style="text;strokeColor=none;fillColor=none;align=left;verticalAlign=top;spacingLeft=4;spacingRight=4;overflow=hidden;rotatable=0;points=[[0,0.5],[1,0.5]];portConstraint=eastwest;" parent="fPNTmjn9pd60Ij1Y-FJk-4" vertex="1">
          <mxGeometry y="130" width="260" height="66" as="geometry" />
        </mxCell>
        <mxCell id="fPNTmjn9pd60Ij1Y-FJk-12" value="+CalculationData(isNewSwing : bool)" style="text;strokeColor=none;fillColor=none;align=left;verticalAlign=top;spacingLeft=4;spacingRight=4;overflow=hidden;rotatable=0;points=[[0,0.5],[1,0.5]];portConstraint=eastwest;" parent="fPNTmjn9pd60Ij1Y-FJk-4" vertex="1">
          <mxGeometry y="196" width="260" height="20" as="geometry" />
        </mxCell>
      </root>
    </mxGraphModel>
  </diagram>
  <diagram id="bjD549p1PCLBpHkMkns_" name="Page-2">
    
    <mxGraphModel dx="862" dy="490" grid="0" gridSize="10" guides="1" tooltips="1" connect="1" arrows="1" fold="1" page="0" pageScale="1" pageWidth="1654" pageHeight="1169" math="0" shadow="0">
      
      <root>
        
        <mxCell id="ifSUxkFmeYUrtrqtUim3-0" />
        
        <mxCell id="ifSUxkFmeYUrtrqtUim3-1" parent="ifSUxkFmeYUrtrqtUim3-0" />
        
        <mxCell id="ifSUxkFmeYUrtrqtUim3-7" value="" style="whiteSpace=wrap;html=1;aspect=fixed;" vertex="1" parent="ifSUxkFmeYUrtrqtUim3-1">
          
          <mxGeometry x="286" y="184" width="360" height="360" as="geometry" />
          
        </mxCell>
        
        <mxCell id="ifSUxkFmeYUrtrqtUim3-3" value="Calculate Pivots" style="ellipse;whiteSpace=wrap;html=1;" vertex="1" parent="ifSUxkFmeYUrtrqtUim3-1">
          
          <mxGeometry x="370" y="219" width="140" height="70" as="geometry" />
          
        </mxCell>
        
        <mxCell id="ifSUxkFmeYUrtrqtUim3-4" value="Show Pivots" style="ellipse;whiteSpace=wrap;html=1;" vertex="1" parent="ifSUxkFmeYUrtrqtUim3-1">
          
          <mxGeometry x="471" y="329" width="140" height="70" as="geometry" />
          
        </mxCell>
        
        <mxCell id="ifSUxkFmeYUrtrqtUim3-5" value="Swing result" style="ellipse;whiteSpace=wrap;html=1;" vertex="1" parent="ifSUxkFmeYUrtrqtUim3-1">
          
          <mxGeometry x="370" y="422" width="140" height="70" as="geometry" />
          
        </mxCell>
        
        <mxCell id="ifSUxkFmeYUrtrqtUim3-6" value="Actor" style="shape=umlActor;verticalLabelPosition=bottom;labelBackgroundColor=#ffffff;verticalAlign=top;html=1;" vertex="1" parent="ifSUxkFmeYUrtrqtUim3-1">
          
          <mxGeometry x="228" y="318" width="30" height="60" as="geometry" />
          
        </mxCell>
        
        <mxCell id="ifSUxkFmeYUrtrqtUim3-10" value="" style="endArrow=none;html=1;" edge="1" parent="ifSUxkFmeYUrtrqtUim3-1" source="ifSUxkFmeYUrtrqtUim3-3" target="ifSUxkFmeYUrtrqtUim3-4">
          
          <mxGeometry width="50" height="50" relative="1" as="geometry">
            
            <mxPoint x="415" y="379" as="sourcePoint" />
            
            <mxPoint x="465" y="329" as="targetPoint" />
            
          </mxGeometry>
          
        </mxCell>
        
        <mxCell id="ifSUxkFmeYUrtrqtUim3-11" value="" style="endArrow=none;html=1;" edge="1" parent="ifSUxkFmeYUrtrqtUim3-1" source="ifSUxkFmeYUrtrqtUim3-5" target="ifSUxkFmeYUrtrqtUim3-3">
          
          <mxGeometry width="50" height="50" relative="1" as="geometry">
            
            <mxPoint x="415" y="379" as="sourcePoint" />
            
            <mxPoint x="465" y="329" as="targetPoint" />
            
          </mxGeometry>
          
        </mxCell>
        
        <mxCell id="ifSUxkFmeYUrtrqtUim3-12" value="" style="endArrow=none;html=1;" edge="1" parent="ifSUxkFmeYUrtrqtUim3-1" source="ifSUxkFmeYUrtrqtUim3-6" target="ifSUxkFmeYUrtrqtUim3-3">
          
          <mxGeometry width="50" height="50" relative="1" as="geometry">
            
            <mxPoint x="415" y="379" as="sourcePoint" />
            
            <mxPoint x="465" y="329" as="targetPoint" />
            
          </mxGeometry>
          
        </mxCell>
        
      </root>
      
    </mxGraphModel>
    
  </diagram>
</mxfile>
